<svg width="1449" height="320" viewBox="0 0 1449 320" fill="none" xmlns="http://www.w3.org/2000/svg">
<path d="M505 69.7818C384.333 64.7047 360.001 131.772 293.5 129.386C227 127 265.999 107 180 98.5C94 90 56 107.5 -0.000244141 144V215.5L203.333 216H505H867H1229H1449L1447.5 79C1398.5 58.917 1349.66 42.9751 1229 58.9169C1108.33 74.8588 987.667 129.691 867 129.386C746.333 129.691 625.667 74.8588 505 69.7818Z" fill="#E49292"/>
<path opacity="0.5" d="M0 85.5L60.3333 96.2C120.667 106.5 241.333 128.5 362 122.8C482.667 117.5 603.333 85.5 724 90.8C844.667 96.5 965.333 138.5 1086 128.2C1206.67 117.5 1327.33 79.5 1387.67 47.5L1448 14V169H1350C1289.67 169 1206.67 169 1086 169C965.333 169 844.667 169 724 169C603.333 169 482.667 169 362 169C241.333 169 134.833 169 74.5 169H0V85.5Z" fill="#0099FF" fill-opacity="0.5"/>
<path d="M0 158.014L60.3333 136.386C120.667 114.352 241.333 71.7048 362 76.7818C482.667 81.8588 603.333 136.691 724 136.386C844.667 136.691 965.333 81.8588 1086 65.917C1206.67 49.3659 1327.33 71.7048 1387.67 82.1634L1448 93.0283V223H1387.67C1327.33 223 1206.67 223 1086 223C965.333 223 844.667 223 724 223C603.333 223 482.667 223 362 223C241.333 223 120.667 223 60.3333 223H0V158.014Z" fill="white"/>
</svg>
